<svg xmlns="http://www.w3.org/2000/svg" viewBox="442 287 40 40">
	<path d="M449.100,318.250C451.200,316.917,453.275,315.908,455.325,315.225C457.375,314.542,459.600,314.200,462.000,314.200C464.400,314.200,466.633,314.542,468.700,315.225C470.767,315.908,472.850,316.917,474.950,318.250C476.417,316.450,477.458,314.633,478.075,312.800C478.692,310.967,479.000,309.033,479.000,307.000C479.000,302.167,477.375,298.125,474.125,294.875C470.875,291.625,466.833,290.000,462.000,290.000C457.167,290.000,453.125,291.625,449.875,294.875C446.625,298.125,445.000,302.167,445.000,307.000C445.000,309.033,445.317,310.967,445.950,312.800C446.583,314.633,447.633,316.450,449.100,318.250ZZM462.000,308.500C460.067,308.500,458.442,307.842,457.125,306.525C455.808,305.208,455.150,303.583,455.150,301.650C455.150,299.717,455.808,298.092,457.125,296.775C458.442,295.458,460.067,294.800,462.000,294.800C463.933,294.800,465.558,295.458,466.875,296.775C468.192,298.092,468.850,299.717,468.850,301.650C468.850,303.583,468.192,305.208,466.875,306.525C465.558,307.842,463.933,308.500,462.000,308.500ZZM462.000,327.000C459.200,327.000,456.583,326.475,454.150,325.425C451.717,324.375,449.600,322.942,447.800,321.125C446.000,319.308,444.583,317.183,443.550,314.750C442.517,312.317,442.000,309.717,442.000,306.950C442.000,304.217,442.525,301.633,443.575,299.200C444.625,296.767,446.058,294.650,447.875,292.850C449.692,291.050,451.817,289.625,454.250,288.575C456.683,287.525,459.283,287.000,462.050,287.000C464.783,287.000,467.367,287.525,469.800,288.575C472.233,289.625,474.350,291.050,476.150,292.850C477.950,294.650,479.375,296.767,480.425,299.200C481.475,301.633,482.000,304.233,482.000,307.000C482.000,309.733,481.475,312.317,480.425,314.750C479.375,317.183,477.950,319.308,476.150,321.125C474.350,322.942,472.233,324.375,469.800,325.425C467.367,326.475,464.767,327.000,462.000,327.000ZZ" rx="0" ry="0" fill="rgb(250 250 250)"/>
</svg>
